<svg version="1.0" xmlns="http://www.w3.org/2000/svg" width="682.667" height="682.667" viewBox="0 0 512 512"><path d="M264 .8c0 .6-1.1 8.7-2.5 18.2S259 37 259 38c0 1.4 1.5 2 7.8 3 30.6 4.9 67.5 19.3 94.2 37 16.4 10.9 26.8 19.3 40.4 32.8 35.2 34.8 58.3 76.9 69.1 125.7 1.8 8.6 2.4 10 4.1 9.8 4.9-.4 36-5.7 36.6-6.2.4-.3-.4-5.6-1.7-11.7C490.6 141.1 432.8 67 352.8 27.7 327.5 15.2 301.9 6.6 278 2.5c-5.2-.9-10.5-1.9-11.7-2.2-1.3-.3-2.3-.1-2.3.5zM78.4 50c-9.7 2-14.1 5.4-39.8 30.9-13.6 13.5-26.4 26.9-28.2 29.8-18 27.6-12.6 73.4 15.8 135.1 31.9 69 89.1 138.6 154.8 188.2 38.7 29.2 84.8 54.3 123 67.1 31.6 10.5 61.3 13.5 80.2 8 14.2-4.1 17.3-6.5 45.5-34.5 23.7-23.6 26.5-26.8 29.4-33 2.8-6 3.3-8.1 3.3-14.6s-.5-8.6-3.3-14.6c-3-6.4-5.9-9.6-39.4-43-29.5-29.4-37.2-36.6-41.7-38.7-7.6-3.7-14.7-4.9-21.2-3.7-10.8 2.1-14.9 5.1-39.9 29.7-13 12.8-24.4 23.3-25.3 23.3-2.5 0-26-12.1-35.1-18.1-35.4-23-75.5-62.1-101.2-98.5-8.8-12.5-12.9-19.4-18.8-31.6-3.7-7.6-4.6-10.3-4-12.5.4-1.8 8.8-11 23.5-25.8 20.5-20.6 23.3-23.8 26-29.9 5.3-11.5 4.1-22.5-3.4-33.9-1.9-2.9-18.9-20.6-37.8-39.4-30.8-30.7-35-34.5-40.8-37.2-7.1-3.3-15.2-4.4-21.6-3.1zm180.3 54.9c-1.4 7.2-5 36.1-4.6 36.5.2.3 4 1.2 8.4 2.1 51.3 10.6 92.2 50.5 104.5 101.9 1.1 4.3 2 8 2.2 8.1.5.4 37.8-6.2 38.3-6.7.7-.6-1-9.1-3.7-18.3-18-63.7-71.6-112.5-137-124.8l-7.6-1.4-.5 2.6z" fill="#fff"/></svg>